<svg xmlns="http://www.w3.org/2000/svg" xmlns:xlink="http://www.w3.org/1999/xlink" xmlns:lucid="lucid" width="382" height="422"><g transform="translate(721 241)" lucid:page-tab-id="0_0"><path d="M-720-234a6 6 0 0 1 6-6h208a6 6 0 0 1 6 6v68a6 6 0 0 1-6 6h-208a6 6 0 0 1-6-6z" stroke="#3a414a" stroke-width="2" fill="#fff"/><use xlink:href="#a" transform="matrix(1,0,0,1,-715,-235) translate(58.955078125 49.6875)"/><path d="M-560-74a6 6 0 0 1 6-6h208a6 6 0 0 1 6 6v68a6 6 0 0 1-6 6h-208a6 6 0 0 1-6-6z" stroke="#3a414a" stroke-width="2" fill="#fff"/><use xlink:href="#b" transform="matrix(1,0,0,1,-555,-75) translate(34.365234375 49.6875)"/><path d="M-720 106a6 6 0 0 1 6-6h208a6 6 0 0 1 6 6v68a6 6 0 0 1-6 6h-208a6 6 0 0 1-6-6z" stroke="#3a414a" stroke-width="2" fill="#fff"/><use xlink:href="#c" transform="matrix(1,0,0,1,-715,105) translate(69.892578125 49.6875)"/><path d="M-498 140h42a6 6 0 0 0 6-6V19.5" stroke="#3a414a" stroke-width="2" fill="none"/><path d="M-497.97 140.97H-499v-1.94h1.03z" stroke="#3a414a" stroke-width=".05" fill="#3a414a"/><path d="M-450 4.24l4.63 14.26h-9.26z" stroke="#3a414a" stroke-width="2" fill="#3a414a"/><path d="M-610 98v-238.5" stroke="#3a414a" stroke-width="2" fill="none"/><path d="M-609.02 99H-611v-1.03h1.96z" stroke="#3a414a" stroke-width=".05" fill="#3a414a"/><path d="M-610-155.76l4.63 14.26h-9.26z" stroke="#3a414a" stroke-width="2" fill="#3a414a"/><path d="M-450-82v-112a6 6 0 0 0-6-6h-24.5" stroke="#3a414a" stroke-width="2" fill="none"/><path d="M-449.02-81h-1.96v-1.03h1.96z" stroke="#3a414a" stroke-width=".05" fill="#3a414a"/><path d="M-495.76-200l14.26-4.63v9.26z" stroke="#3a414a" stroke-width="2" fill="#3a414a"/><defs><path d="M538 24C308 24 148-78 108-271l171-41c32 123 123 178 257 178 156 0 256-77 256-169 0-77-54-128-164-154l-186-44c-203-48-300-148-300-305 0-192 176-326 414-326 230 0 351 112 402 269l-163 42c-31-80-94-158-238-158-133 0-233 69-233 162 0 83 57 129 188 160l169 40c203 48 298 149 298 302 0 196-179 339-441 339" id="d"/><path d="M158 418v-1536h174v179h20c37-59 106-193 324-193 279 0 474 222 474 576 0 356-194 580-473 580-213 0-288-135-325-197h-14v591H158zm492-555c209 0 317-186 317-421 0-232-105-413-317-413-206 0-314 166-314 413 0 249 111 421 314 421" id="e"/><path d="M471 26C259 26 90-98 90-318c0-256 228-303 435-329 202-27 287-16 287-108 0-139-79-219-234-219-161 0-248 86-283 164l-173-57c86-203 278-265 451-265 150 0 419 46 419 395V0H815v-152h-12C765-73 660 26 471 26zm31-159c199 0 310-134 310-271v-155c-30 35-226 55-295 64-131 17-246 59-246 186 0 116 97 176 231 176" id="f"/><path d="M338-670V0H158v-1118h173l1 207c72-158 192-221 342-221 226 0 378 139 378 422V0H872v-695c0-172-96-275-252-275-161 0-282 109-282 300" id="g"/><g id="a"><use transform="matrix(0.01953125,0,0,0.01953125,0,0)" xlink:href="#d"/><use transform="matrix(0.01953125,0,0,0.01953125,21.11328125,0)" xlink:href="#e"/><use transform="matrix(0.01953125,0,0,0.01953125,45.99609375,0)" xlink:href="#f"/><use transform="matrix(0.01953125,0,0,0.01953125,68.45703125,0)" xlink:href="#g"/></g><path d="M1096 418H916v-591h-14C865-111 790 24 577 24c-279 0-473-224-473-580 0-354 195-576 474-576 218 0 287 134 324 193h20v-179h174V418zM604-137c203 0 314-172 314-421 0-247-108-413-314-413-212 0-317 181-317 413 0 235 108 421 317 421" id="h"/><path d="M537 14c-226 0-379-139-379-422v-710h180v695c0 172 97 275 253 275 160 0 281-109 281-300v-670h181V0H879v-209C806-46 684 14 537 14" id="i"/><path d="M628 24c-324 0-524-230-524-574 0-343 198-582 503-582 237 0 487 146 487 559v75H286c9 234 145 362 343 362 132 0 231-58 273-172l174 48C1024-91 857 24 628 24zM287-650h624c-17-190-120-322-304-322-192 0-309 151-320 322" id="j"/><path d="M158 0v-1118h174v172h12c41-113 157-188 290-188 26 0 70 2 91 3v181c-11-2-60-10-108-10-161 0-279 109-279 260V0H158" id="k"/><path d="M158 0v-1118h180V0H158zm91-1301c-68 0-125-53-125-119s57-119 125-119c69 0 126 53 126 119s-57 119-126 119" id="l"/><g id="b"><use transform="matrix(0.01953125,0,0,0.01953125,0,0)" xlink:href="#h"/><use transform="matrix(0.01953125,0,0,0.01953125,24.4921875,0)" xlink:href="#i"/><use transform="matrix(0.01953125,0,0,0.01953125,48.14453125,0)" xlink:href="#j"/><use transform="matrix(0.01953125,0,0,0.01953125,71.46484375,0)" xlink:href="#k"/><use transform="matrix(0.01953125,0,0,0.01953125,87.1484375,0)" xlink:href="#l"/><use transform="matrix(0.01953125,0,0,0.01953125,96.8359375,0)" xlink:href="#j"/><use transform="matrix(0.01953125,0,0,0.01953125,120.15625,0)" xlink:href="#d"/></g><path d="M598-1118v154H368v674c0 100 37 144 132 144 23 0 62-6 92-12L629-6c-37 13-88 20-134 20-193 0-307-107-307-290v-688H20v-154h168v-266h180v266h230" id="m"/><g id="c"><use transform="matrix(0.01953125,0,0,0.01953125,0,0)" xlink:href="#m"/><use transform="matrix(0.01953125,0,0,0.01953125,12.6953125,0)" xlink:href="#j"/><use transform="matrix(0.01953125,0,0,0.01953125,36.015625,0)" xlink:href="#d"/><use transform="matrix(0.01953125,0,0,0.01953125,57.12890625,0)" xlink:href="#m"/></g></defs></g></svg>